<mxfile host="app.diagrams.net" agent="Mozilla/5.0 (Windows NT 10.0; Win64; x64) AppleWebKit/537.36 (KHTML, like Gecko) Chrome/128.0.0.0 Safari/537.36 Edg/128.0.0.0" version="24.7.10">
  <diagram name="第 1 页" id="QvvG3qglzOaqUbpZ8Jbu">
    <mxGraphModel dx="1379" dy="793" grid="1" gridSize="10" guides="1" tooltips="1" connect="1" arrows="1" fold="1" page="1" pageScale="1" pageWidth="827" pageHeight="1169" math="0" shadow="0">
      <root>
        <mxCell id="0" />
        <mxCell id="1" parent="0" />
        <mxCell id="ommygmDZhLc5zNUEJ-uk-5" value="" style="edgeStyle=orthogonalEdgeStyle;rounded=0;orthogonalLoop=1;jettySize=auto;html=1;" edge="1" parent="1" source="ommygmDZhLc5zNUEJ-uk-2" target="ommygmDZhLc5zNUEJ-uk-4">
          <mxGeometry relative="1" as="geometry" />
        </mxCell>
        <mxCell id="ommygmDZhLc5zNUEJ-uk-22" style="edgeStyle=orthogonalEdgeStyle;rounded=0;orthogonalLoop=1;jettySize=auto;html=1;exitX=1;exitY=0.5;exitDx=0;exitDy=0;entryX=0;entryY=0.5;entryDx=0;entryDy=0;" edge="1" parent="1" source="ommygmDZhLc5zNUEJ-uk-2" target="ommygmDZhLc5zNUEJ-uk-13">
          <mxGeometry relative="1" as="geometry" />
        </mxCell>
        <mxCell id="ommygmDZhLc5zNUEJ-uk-2" value="器件选型" style="whiteSpace=wrap;html=1;rounded=1;" vertex="1" parent="1">
          <mxGeometry x="120" y="130" width="120" height="60" as="geometry" />
        </mxCell>
        <mxCell id="ommygmDZhLc5zNUEJ-uk-28" style="edgeStyle=orthogonalEdgeStyle;rounded=0;orthogonalLoop=1;jettySize=auto;html=1;exitX=1;exitY=0.5;exitDx=0;exitDy=0;entryX=0;entryY=0.5;entryDx=0;entryDy=0;" edge="1" parent="1" source="ommygmDZhLc5zNUEJ-uk-4" target="ommygmDZhLc5zNUEJ-uk-23">
          <mxGeometry relative="1" as="geometry" />
        </mxCell>
        <mxCell id="ommygmDZhLc5zNUEJ-uk-31" value="" style="edgeStyle=orthogonalEdgeStyle;rounded=0;orthogonalLoop=1;jettySize=auto;html=1;" edge="1" parent="1" source="ommygmDZhLc5zNUEJ-uk-4" target="ommygmDZhLc5zNUEJ-uk-30">
          <mxGeometry relative="1" as="geometry" />
        </mxCell>
        <mxCell id="ommygmDZhLc5zNUEJ-uk-4" value="程序设计" style="whiteSpace=wrap;html=1;rounded=1;" vertex="1" parent="1">
          <mxGeometry x="120" y="290" width="120" height="60" as="geometry" />
        </mxCell>
        <mxCell id="ommygmDZhLc5zNUEJ-uk-8" value="器件选型" style="swimlane;fontStyle=0;childLayout=stackLayout;horizontal=1;startSize=30;horizontalStack=0;resizeParent=1;resizeParentMax=0;resizeLast=0;collapsible=1;marginBottom=0;whiteSpace=wrap;html=1;" vertex="1" parent="1">
          <mxGeometry x="450" y="85" width="330" height="200" as="geometry" />
        </mxCell>
        <mxCell id="ommygmDZhLc5zNUEJ-uk-9" value="音箱模型：&lt;a href=&quot;https://makerworld.com.cn/zh/models/266893?from=search#profileId-203500&quot;&gt;蓝牙台式音箱2.0/3D打印音箱2.0 来自 Given晚椿 - MakerWorld&lt;/a&gt;" style="text;strokeColor=none;fillColor=none;align=left;verticalAlign=middle;spacingLeft=4;spacingRight=4;overflow=hidden;points=[[0,0.5],[1,0.5]];portConstraint=eastwest;rotatable=0;whiteSpace=wrap;html=1;" vertex="1" parent="ommygmDZhLc5zNUEJ-uk-8">
          <mxGeometry y="30" width="330" height="50" as="geometry" />
        </mxCell>
        <mxCell id="ommygmDZhLc5zNUEJ-uk-13" value="喇叭：2寸TBD" style="text;strokeColor=none;fillColor=none;align=left;verticalAlign=middle;spacingLeft=4;spacingRight=4;overflow=hidden;points=[[0,0.5],[1,0.5]];portConstraint=eastwest;rotatable=0;whiteSpace=wrap;html=1;" vertex="1" parent="ommygmDZhLc5zNUEJ-uk-8">
          <mxGeometry y="80" width="330" height="30" as="geometry" />
        </mxCell>
        <mxCell id="ommygmDZhLc5zNUEJ-uk-10" value="蓝牙功放板：" style="text;strokeColor=none;fillColor=none;align=left;verticalAlign=middle;spacingLeft=4;spacingRight=4;overflow=hidden;points=[[0,0.5],[1,0.5]];portConstraint=eastwest;rotatable=0;whiteSpace=wrap;html=1;" vertex="1" parent="ommygmDZhLc5zNUEJ-uk-8">
          <mxGeometry y="110" width="330" height="30" as="geometry" />
        </mxCell>
        <mxCell id="ommygmDZhLc5zNUEJ-uk-11" value="屏幕：" style="text;strokeColor=none;fillColor=none;align=left;verticalAlign=middle;spacingLeft=4;spacingRight=4;overflow=hidden;points=[[0,0.5],[1,0.5]];portConstraint=eastwest;rotatable=0;whiteSpace=wrap;html=1;" vertex="1" parent="ommygmDZhLc5zNUEJ-uk-8">
          <mxGeometry y="140" width="330" height="30" as="geometry" />
        </mxCell>
        <mxCell id="ommygmDZhLc5zNUEJ-uk-37" value="氛围灯?" style="text;strokeColor=none;fillColor=none;align=left;verticalAlign=middle;spacingLeft=4;spacingRight=4;overflow=hidden;points=[[0,0.5],[1,0.5]];portConstraint=eastwest;rotatable=0;whiteSpace=wrap;html=1;" vertex="1" parent="ommygmDZhLc5zNUEJ-uk-8">
          <mxGeometry y="170" width="330" height="30" as="geometry" />
        </mxCell>
        <mxCell id="ommygmDZhLc5zNUEJ-uk-23" value="程序设计" style="swimlane;fontStyle=0;childLayout=stackLayout;horizontal=1;startSize=30;horizontalStack=0;resizeParent=1;resizeParentMax=0;resizeLast=0;collapsible=1;marginBottom=0;whiteSpace=wrap;html=1;" vertex="1" parent="1">
          <mxGeometry x="410" y="360" width="390" height="150" as="geometry" />
        </mxCell>
        <mxCell id="ommygmDZhLc5zNUEJ-uk-24" value="音质调整：TBD" style="text;strokeColor=none;fillColor=none;align=left;verticalAlign=middle;spacingLeft=4;spacingRight=4;overflow=hidden;points=[[0,0.5],[1,0.5]];portConstraint=eastwest;rotatable=0;whiteSpace=wrap;html=1;" vertex="1" parent="ommygmDZhLc5zNUEJ-uk-23">
          <mxGeometry y="30" width="390" height="30" as="geometry" />
        </mxCell>
        <mxCell id="ommygmDZhLc5zNUEJ-uk-25" value="屏幕控制：" style="text;strokeColor=none;fillColor=none;align=left;verticalAlign=middle;spacingLeft=4;spacingRight=4;overflow=hidden;points=[[0,0.5],[1,0.5]];portConstraint=eastwest;rotatable=0;whiteSpace=wrap;html=1;" vertex="1" parent="ommygmDZhLc5zNUEJ-uk-23">
          <mxGeometry y="60" width="390" height="30" as="geometry" />
        </mxCell>
        <mxCell id="ommygmDZhLc5zNUEJ-uk-26" value="氛围灯控制？" style="text;strokeColor=none;fillColor=none;align=left;verticalAlign=middle;spacingLeft=4;spacingRight=4;overflow=hidden;points=[[0,0.5],[1,0.5]];portConstraint=eastwest;rotatable=0;whiteSpace=wrap;html=1;" vertex="1" parent="ommygmDZhLc5zNUEJ-uk-23">
          <mxGeometry y="90" width="390" height="30" as="geometry" />
        </mxCell>
        <mxCell id="ommygmDZhLc5zNUEJ-uk-27" value="音量调节：" style="text;strokeColor=none;fillColor=none;align=left;verticalAlign=middle;spacingLeft=4;spacingRight=4;overflow=hidden;points=[[0,0.5],[1,0.5]];portConstraint=eastwest;rotatable=0;whiteSpace=wrap;html=1;" vertex="1" parent="ommygmDZhLc5zNUEJ-uk-23">
          <mxGeometry y="120" width="390" height="30" as="geometry" />
        </mxCell>
        <mxCell id="ommygmDZhLc5zNUEJ-uk-33" value="" style="edgeStyle=orthogonalEdgeStyle;rounded=0;orthogonalLoop=1;jettySize=auto;html=1;" edge="1" parent="1" source="ommygmDZhLc5zNUEJ-uk-30" target="ommygmDZhLc5zNUEJ-uk-32">
          <mxGeometry relative="1" as="geometry" />
        </mxCell>
        <mxCell id="ommygmDZhLc5zNUEJ-uk-30" value="模型打印" style="whiteSpace=wrap;html=1;rounded=1;" vertex="1" parent="1">
          <mxGeometry x="120" y="440" width="120" height="60" as="geometry" />
        </mxCell>
        <mxCell id="ommygmDZhLc5zNUEJ-uk-32" value="装配" style="whiteSpace=wrap;html=1;rounded=1;" vertex="1" parent="1">
          <mxGeometry x="120" y="600" width="120" height="60" as="geometry" />
        </mxCell>
      </root>
    </mxGraphModel>
  </diagram>
</mxfile>
